<svg viewBox="0 0 86 86"><title>Vector Smart Object</title><g clip-path="url(#clip-path)"><circle cx="43" cy="43" r="42.5" fill="none" stroke="#c2c3c5" stroke-miterlimit="10"/><path d="M48,50.6a2.56,2.56,0,0,1-1.4-.45,28.85,28.85,0,0,1-10.17-10,3.31,3.31,0,0,1-.7-2.35C36,36.23,38,35.62,38.57,34.14c0.53-1.28-.16-2.72-1-3.83a17.61,17.61,0,0,0-5.06-4.65,7.05,7.05,0,0,0-3.09-1.15c-5-.25-5.27,8.07-4.61,11.32a25.89,25.89,0,0,0,4.36,9.34c4.65,6.75,11,12.47,18.77,15.19a15.23,15.23,0,0,0,8.44.86,7.15,7.15,0,0,0,3.7-2,4.62,4.62,0,0,0,1.28-3.91,7.27,7.27,0,0,0-2.22-3.62,29.32,29.32,0,0,0-4.78-4,2.54,2.54,0,0,0-1-.45,2,2,0,0,0-1.15.37,14,14,0,0,0-2.8,2.06,2.55,2.55,0,0,1-1.28.82,0.22,0.22,0,0,1-.12.08" fill="#5392c1"/></g></svg>