<svg id="Layer_1" viewBox="0 0 86 86"><title>cycle</title><g class="cls-2"><circle class="cls-3" cx="43" cy="43" r="42.5"/><path class="cls-4" d="M62.57,28.85l-1.95.64A0.52,0.52,0,0,1,60,29.29a21.16,21.16,0,0,0-32-2.77,0.35,0.35,0,0,0,.35.59l4.49-1.47a1.54,1.54,0,0,1,1.78.63,1.59,1.59,0,0,1,.21,1.2l-0.35,1.66a0.35,0.35,0,0,0,.53.37,14.46,14.46,0,0,1,17.77,1.73,0.52,0.52,0,0,1-.2.87l-1.1.36a0.52,0.52,0,0,0-.19.88L60,41.08a0.52,0.52,0,0,0,.86-0.28l2.38-11.35a0.52,0.52,0,0,0-.67-0.6"/><path class="cls-4" d="M34.08,58.39a1.54,1.54,0,0,1,.55-2.62l1.65-.54a0.35,0.35,0,0,0,.05-0.64,14.46,14.46,0,0,1-7.39-16.26,0.52,0.52,0,0,1,.86-0.27l0.86,0.78a0.52,0.52,0,0,0,.86-0.28l2.38-11.34a0.52,0.52,0,0,0-.67-0.6l-11,3.61a0.52,0.52,0,0,0-.18.88l1.53,1.37a0.53,0.53,0,0,1,.13.61A21.16,21.16,0,0,0,37.28,62.14a0.35,0.35,0,0,0,.33-0.6Z"/><path class="cls-4" d="M61.86,41a1.54,1.54,0,0,1-2.54.83L58,40.68a0.35,0.35,0,0,0-.58.27A14.46,14.46,0,0,1,47.06,55.48a0.52,0.52,0,0,1-.66-0.61l0.24-1.14a0.52,0.52,0,0,0-.67-0.6L35,56.75a0.52,0.52,0,0,0-.19.88l8.63,7.74a0.52,0.52,0,0,0,.86-0.28l0.42-2a0.52,0.52,0,0,1,.46-0.41,21.16,21.16,0,0,0,18.37-26.3,0.35,0.35,0,0,0-.68,0Z"/></g></svg>