<svg viewBox="0 0 86 86"><rect width="86" height="86" fill="none"/><title>glasses</title><circle cx="43" cy="43" r="42.5" fill="none" stroke="#c2c3c5" stroke-miterlimit="10"/><path d="M68.74,44.07a4.19,4.19,0,0,0-1.8-.86,41.65,41.65,0,0,0-7.44-1c-1-.06-2-0.1-3-0.07,0,0-6-.2-8.85,1.15a14.85,14.85,0,0,1-4.67.62,14.88,14.88,0,0,1-4.66-.66C35.53,41.84,29.51,42,29.51,42c-1,0-2,0-3,0a41.4,41.4,0,0,0-7.45,1,4.19,4.19,0,0,0-1.81.84c-0.82.72-1.37,2.63-.1,3.14a2,2,0,0,1,1,2c-0.39,4.4,1.13,10,11.22,9.87,9.55,0.22,11.47-4.78,11.35-9C41.48,46.93,43,47.3,43,47.3s1.51-.35,2.19,2.54C45,54.11,46.9,59.12,56.45,59c10.09,0.23,11.66-5.36,11.31-9.77a2,2,0,0,1,1.06-2c1.27-.5.74-2.41-0.07-3.14M29.44,57c-11.52.16-8.75-9.26-7.91-11.35s8-1.85,8-1.85,7.12-.18,7.95,1.92S41,57.29,29.44,57m27,0.13c-11.52.16-8.75-9.26-7.91-11.35s8-1.85,8-1.85,7.12-.18,7.95,1.92,3.51,11.53-8,11.27" fill="#5392c1"/><path d="M52.88,29.1S56,28,58.3,29.11c2,1,7,7.58,6.67,12.22h1.38a4,4,0,0,1,3.17,1.45l0.07,0.08C69.34,42,65.06,26.48,56.81,27c-8.49.55-3.93,2.09-3.93,2.09" fill="#5392c1"/><path d="M19.66,41.32H21c-0.33-4.64,4.63-11.2,6.67-12.22,2.28-1.14,5.43,0,5.43,0s4.56-1.54-3.93-2.09c-8.25-.54-12.53,15-12.77,15.84l0.07-.08a4,4,0,0,1,3.17-1.45" fill="#5392c1"/></svg>