<svg id="Layer_1" viewBox="0 0 86 86"><title>globe</title><g class="cls-2"><circle class="cls-3" cx="43" cy="43" r="42.5"/><path class="cls-4" d="M40.64,44.56a2.1,2.1,0,0,1,1.94,1.3s0,0.09,0,.13h6A31.36,31.36,0,0,1,47,50.45a12.85,12.85,0,0,1-3.8,0c-0.29-.63-0.63-1.46-1-2.43,0,0-.05.08-0.09,0.12L37.23,53a17.24,17.24,0,1,0-8-8.48H40.64Zm8.6-1.29H40.92a30.28,30.28,0,0,1-.5-4.22h9.32a30.28,30.28,0,0,1-.5,4.22m7.47,0H52A33.31,33.31,0,0,0,52.46,39H57.9a12.78,12.78,0,0,1-1.2,4.22m1.2-6.94H52.46A33.74,33.74,0,0,0,52,32.11h4.69a12.8,12.8,0,0,1,1.2,4.22m-3-6.94H51.44a35.8,35.8,0,0,0-1.06-3.46,13,13,0,0,1,4.57,3.46M51.43,46h3.52a13,13,0,0,1-4.61,3.48A34.58,34.58,0,0,0,51.43,46m-8.31-21a13,13,0,0,1,3.92,0,32.91,32.91,0,0,1,1.58,4.46H41.54a32.91,32.91,0,0,1,1.58-4.46m-2.2,7.18h8.33a31,31,0,0,1,.49,4.22H40.42a30.84,30.84,0,0,1,.49-4.22m-1.13-6.19a35.88,35.88,0,0,0-1.07,3.47H35.2a13,13,0,0,1,4.59-3.47m-6.35,6.19h4.71a33.93,33.93,0,0,0-.45,4.22H32.24a12.8,12.8,0,0,1,1.2-4.22M37.7,39a33.13,33.13,0,0,0,.45,4.22H33.44A12.78,12.78,0,0,1,32.24,39H37.7Z"/><path class="cls-4" d="M64.05,43.26C59.85,56,51.8,58.75,45.69,58.75c-4.84,0-9-3-11.62-5.53l1.28-1.28,3.15-3.15L39.32,48l1.33-1.33H22L21.74,65.56l6.37-6.37a22.49,22.49,0,0,0,15.68,6.37c12,0,22.07-9.45,20.27-22.3"/></g></svg>