<svg viewBox="0 0 200 200"><title>heart</title><path d="M110.12,48l-2.65-.91c-1.72-.59-4.25-1.4-7.45-2.33A117.33,117.33,0,0,0,88.53,42c-2.21-.38-4.55-0.73-7-0.91a44.83,44.83,0,0,0-7.51,0,15.65,15.65,0,0,0-1.91.2,17.63,17.63,0,0,0-1.91.31c-0.63.15-1.27,0.25-1.9,0.41l-1.87.56a30.42,30.42,0,0,0-7.1,3.59c-0.55.42-1.15,0.77-1.69,1.24L56,48.81a37.08,37.08,0,0,0-3.11,3.29A40.28,40.28,0,0,0,50,55.94c-0.47.68-.85,1.43-1.29,2.15s-0.87,1.44-1.25,2.24a54.27,54.27,0,0,0-3.81,10,25.09,25.09,0,0,0-.85,5.22,4,4,0,0,0,0,.63v0.54s0,0.11,0,0L43,78.15a11.53,11.53,0,0,0,.24,1.3,12.64,12.64,0,0,0,.32,1.27,27.13,27.13,0,0,0,5.07,9.55,44.48,44.48,0,0,0,8.08,7.55A128,128,0,0,0,76,108.72c6.54,3.08,13.74,5.94,20.35,9.12a114.49,114.49,0,0,1,18.81,10.81,54.91,54.91,0,0,1,8,7.08,37.46,37.46,0,0,1,5.92,8.54A40.53,40.53,0,0,1,132.2,153a64.92,64.92,0,0,1,1.34,7.83c0.55,4.85.7,9,.78,12.43,0.17,6.84,0,10.77,0,10.77l-1.09.17S131.88,180.51,130,174c-1-3.25-2.1-7.24-3.51-11.61s-3.11-9.13-5.89-13.23-6.8-7.65-12-11-11.16-6.63-17.41-10.07q-4.7-2.58-9.61-5.2c-1.66-.89-3.3-1.72-5-2.67s-3.44-1.85-5.14-2.88a82.56,82.56,0,0,1-18.77-15c-5.43-6-10.19-12.85-12.32-20.69-0.15-.47-0.24-1-0.35-1.51s-0.25-1-.29-1.49l-0.21-1.41-0.06-.86c0-.27,0-0.53,0-0.79a40.67,40.67,0,0,1,.44-6c0.54-3.86,1.24-7.53,2.13-11.27,0.2-.91.53-1.86,0.81-2.77s0.55-1.85.9-2.75a40.87,40.87,0,0,1,2.43-5.29,33.64,33.64,0,0,1,3.23-4.88l2-2.18c0.67-.71,1.46-1.31,2.19-2a29.22,29.22,0,0,1,10-5.28,36,36,0,0,1,10.21-1.45,43.07,43.07,0,0,1,9.09,1,53.18,53.18,0,0,1,7.71,2.2,63.77,63.77,0,0,1,11.45,5.57,62.65,62.65,0,0,1,6.61,4.68c1.44,1.19,2.16,1.9,2.16,1.9Z"/><path d="M118.37,36.12a17.3,17.3,0,0,1,.42-1.76,26.61,26.61,0,0,1,1.89-4.7,27.57,27.57,0,0,1,4.67-6.59,22.48,22.48,0,0,1,4.09-3.37,19.29,19.29,0,0,1,5.77-2.52,17.77,17.77,0,0,1,7.21-.26,17.24,17.24,0,0,1,3.63,1,14.54,14.54,0,0,1,1.7.79c0.28,0.15.55,0.28,0.83,0.45s0.66,0.42.88,0.58a22.45,22.45,0,0,1,5.12,5.13A29.35,29.35,0,0,1,158,31.4a40.94,40.94,0,0,1,1.9,7.08,53.46,53.46,0,0,1,.62,7.22c0,0.6,0,1.21,0,1.82v0.11a0.55,0.55,0,0,1,0,.16v0.05l0,0.21,0,0.43-0.2,1.08c-0.27,1.24-.6,2.41-0.93,3.58-0.69,2.32-1.36,4.65-2.16,7a45.53,45.53,0,0,1-2.92,7c-0.29.56-.73,1.21-1,1.73l-0.94,1.47c-0.63,1-1.24,1.9-1.88,2.83-2.56,3.72-5,7.42-7.26,11s-4.51,7-6.6,10.11c-1.05,1.58-2,3.11-3,4.58-0.48.74-.86,1.47-1.31,2.18l-1.12,2-1.14,2.31-1,2c-0.32.63-.58,1.29-0.85,1.94s-0.53,1.27-.75,1.88a34.54,34.54,0,0,0-1.84,6.46,15.72,15.72,0,0,0-.2,4.34,9.7,9.7,0,0,0,.28,1.5l-0.81.74a6.78,6.78,0,0,1-1.38-1.39,14.38,14.38,0,0,1-2.31-4.82,26.32,26.32,0,0,1-.86-8.13,23.34,23.34,0,0,1,.16-2.41,23.9,23.9,0,0,1,.33-2.55l0.23-1.34c0.08-.46.17-0.92,0.27-1.31L122,99.69l0.47-1.5c0.15-.47.29-1,0.46-1.43,0.35-.92.7-1.89,1.09-2.82a60.75,60.75,0,0,1,2.67-5.61,73.24,73.24,0,0,1,7.22-10.88c2.78-3.52,5.83-7,9-10.42,0.78-.86,1.63-1.71,2.45-2.53l2.33-2.23a49.57,49.57,0,0,0,4.27-4.95,42.18,42.18,0,0,0,3.68-5.68,23.09,23.09,0,0,0,1.3-3l0.19-.6,0.07-.42,0-.21V47.38c0,0.19,0,0,0,.05v-0.1c0-.54,0-1.08,0-1.62a16.87,16.87,0,0,0-1.05-6.24,17.37,17.37,0,0,0-3.2-5.14A31.36,31.36,0,0,0,144.33,28c-0.19-.11-0.26-0.12-0.39-0.19s-0.33-.13-0.5-0.2c-0.33-.13-0.66-0.3-1-0.39a15.87,15.87,0,0,0-1.87-.58,10.83,10.83,0,0,0-3.59-.23,18.35,18.35,0,0,0-7,2.46,50.82,50.82,0,0,0-5.65,3.8c-1.57,1.2-2.81,2.23-3.66,2.93l-1.32,1.1Z"/></svg>