<svg viewBox="0 0 86 86"><title>information-technology</title><g clip-path="url(#clip-path)"><circle cx="43" cy="43" r="42.5" fill="none" stroke="#c2c3c5" stroke-miterlimit="10"/><path d="M59.6,52.36L56.9,48.84v-17A2.78,2.78,0,0,0,54.12,29H31.87a2.78,2.78,0,0,0-2.78,2.78v17L26.4,52.36A2.63,2.63,0,0,0,28.14,57H57.86a2.63,2.63,0,0,0,1.74-4.62M47.54,55.49H38.46a1.13,1.13,0,0,1-1.13-1.07H48.67a1.13,1.13,0,0,1-1.13,1.07m6.69-8.95a0.71,0.71,0,0,1-.71.71H32.66A0.71,0.71,0,0,1,32,46.55V32.46a0.71,0.71,0,0,1,.71-0.71H53.52a0.71,0.71,0,0,1,.71.71V46.55Z" fill="#5392c1"/></g></svg>