<svg viewBox="0 0 86 86"><title>money-hand</title><circle cx="43" cy="43" r="42.5" fill="none" stroke="#c2c3c5" stroke-miterlimit="10"/><path d="M44.5,19a12,12,0,1,0,12,12,12,12,0,0,0-12-12m5.2,9-2.4.24V28c0-1.08-1.2-1.9-2.8-1.9s-2.8.73-2.8,1.7c0,1.18,1.65,1.64,3.1,2,2.54,0.7,4.9,1.69,4.9,4.13s-1.45,3.91-4.2,4.18V40h-2V38.15c-3.87-.4-4.2-3.08-4.2-3.95V34l2.4-.24V34c0,0.92.73,1.9,2.8,1.9,1.29,0,2.8-.44,2.8-1.7s-1.31-1.59-3-2l-0.19-.05C39.87,30.92,39.3,29.38,39.3,28s0.58-3.82,4.2-4.18V22h2v1.87c3,0.39,4.2,2.53,4.2,3.93V28Z" fill="#5392c1"/><path d="M65.1,48.93c-1.1-1.71-3.48-.53-3.48-0.53L52.51,53h-10a1,1,0,0,1-1-1,1,1,0,0,1,1-1H50a2.48,2.48,0,0,0,2.5-2.48A2.52,2.52,0,0,0,50,46H39.71a10.15,10.15,0,0,0-4.78,1.37l-5.48,3.07,3.76,10.18,19.55-1.57a3,3,0,0,0,1.39-.47l10.07-6.4s2.15-1.29.89-3.25" fill="#5392c1"/><polygon points="25.87 67 32.51 64.49 27.14 49.95 20.5 52.45 25.87 67" fill="#5392c1"/></svg>